#!OML:ASF F:\VICON\USERDATA\INSTALL\rory3\rory3.ASF
:FULLY-SPECIFIED
:DEGREES
808
root -1.33449 16.3786 -3.21345 20.9899 4.73421 363.952
lowerback -10.5465 -4.98834 -2.05841
upperback -10.4775 -6.51307 0.418352
thorax -4.8501 -3.14609 1.17032
lowerneck -5.49883 4.03845 0.0726233
upperneck 29.6977 5.2646 1.63499
head 10.3135 2.59632 1.10319
rclavicle -1.36043e-014 -5.86415e-015
rhumerus -60.9122 33.5874 -66.6377
rradius 51.4591
rwrist -62.6032
rhand 22.3571 4.74184
rfingers 7.12502
rthumb 46.7242 -18.0449
lclavicle -1.36043e-014 -5.86415e-015
lhumerus -84.8125 -85.0682 115.882
lradius 101.684
lwrist 48.2499
lhand 33.8589 23.5481
lfingers 7.12502
lthumb 57.1388 40.0179
rfemur -54.552 3.58103 15.14
rtibia 28.4953
rfoot -41.6432 -44.6452
rtoes 48.09
lfemur 7.38917 -4.25446 -24.9482
ltibia 1.90833e-014
lfoot -14.6781 18.3609
ltoes -35.485
809
root -1.36984 16.4321 -3.08471 21.6664 5.60968 364.014
lowerback -10.8637 -5.27743 -1.62679
upperback -10.972 -6.92359 0.413857
thorax -5.25556 -3.37461 0.905144
lowerneck -5.43521 4.14024 -0.18137
upperneck 29.0582 5.32682 2.0754
head 10.039 2.65367 1.29075
rclavicle 2.13818e-014 9.44227e-015
rhumerus -60.9207 34.1606 -65.8882
rradius 50.585
rwrist -61.7357
rhand 22.9385 3.94424
rfingers 7.12502
rthumb 47.2621 -18.6057
lclavicle 2.13818e-014 9.44227e-015
lhumerus -55.0254 -86.4418 85.8404
lradius 100.704
lwrist 47.7175
lhand 34.446 23.054
lfingers 7.12502
lthumb 57.6535 39.0823
rfemur -54.7513 2.65391 15.6674
rtibia 28.7125
rfoot -40.4854 -45.2119
rtoes 47.0192
lfemur 7.02965 -5.12029 -24.4346
ltibia -3.18055e-015
lfoot -13.7926 18.0516
ltoes -35.4432
810
root -1.40622 16.4739 -2.92639 21.7093 5.28071 363.988
lowerback -11.0563 -5.13982 -1.46237
upperback -11.1587 -6.75508 0.247074
thorax -5.39879 -3.30615 0.648921
lowerneck -5.50189 4.22602 -0.331466
upperneck 28.4968 5.35908 2.50183
head 9.82519 2.7055 1.45609
rclavicle -9.51682e-015 -2.05245e-014
rhumerus -60.7595 34.4238 -65.0587
rradius 49.486
rwrist -60.6352
rhand 23.5913 3.97628
rfingers 7.12502
rthumb 47.8648 -18.2994
lclavicle -9.51682e-015 -2.05245e-014
lhumerus -10.1868 -86.4018 40.781
lradius 99.6941
lwrist 47.4929
lhand 34.8056 22.9086
lfingers 7.12502
lthumb 57.9677 38.6589
rfemur -54.3089 3.00119 15.8347
rtibia 28.93
rfoot -41.158 -44.2667
rtoes 47.455
lfemur 7.44533 -4.78907 -24.303
ltibia -5.725e-014
lfoot -13.0983 17.8381
ltoes -35.0179
811
root -1.43323 16.5237 -2.75955 22.2776 5.89534 364.135
lowerback -11.7465 -5.31235 -1.1001
upperback -11.6361 -6.99941 0.168052
thorax -5.60092 -3.45671 0.31854
lowerneck -5.0268 4.39611 -0.500108
upperneck 27.8287 5.5473 2.80443
head 9.47315 2.81579 1.5749
rclavicle 2.4581e-014 1.28713e-014
rhumerus -60.9077 34.9762 -64.3256
rradius 48.4235
rwrist -59.3894
rhand 23.966 4.11552
rfingers 7.12502
rthumb 48.2102 -17.9986
lclavicle 2.4581e-014 1.28713e-014
lhumerus 15.9501 -85.1853 14.5517
lradius 98.7273
lwrist 47.3775
lhand 34.8724 23.1729
lfingers 7.12502
lthumb 58.026 38.8709
rfemur -54.1875 2.03849 16.2894
rtibia 29.1489
rfoot -42.1827 -42.7111
rtoes 48.1241
lfemur 7.28801 -5.42691 -24.0472
ltibia -2.22639e-014
lfoot -12.1559 17.7305
ltoes -34.7727
812
root -1.47618 16.5676 -2.62265 22.83 6.35832 364.009
lowerback -12.0766 -5.43096 -0.821673
upperback -12.1493 -7.17288 0.261147
thorax -6.01232 -3.55762 0.254529
lowerneck -4.55204 4.50754 -0.510934
upperneck 27.0556 5.68984 2.87121
head 9.10307 2.89595 1.57702
rclavicle -2.25621e-014 -1.06847e-014
rhumerus -60.939 35.6126 -63.5105
rradius 47.3737
rwrist -58.3875
rhand 24.2758 4.29377
rfingers 7.12502
rthumb 48.4954 -17.6845
lclavicle -2.25621e-014 -1.06847e-014
lhumerus 29.4747 -83.3778 1.00659
lradius 97.6765
lwrist 47.2734
lhand 35.0642 23.3545
lfingers 7.12502
lthumb 58.1931 38.9014
rfemur -54.2272 2.1822 16.46
rtibia 29.2547
rfoot -43.772 -42.2131
rtoes 48.4619
lfemur 7.0133 -5.81898 -23.4622
ltibia 1.27222e-014
lfoot -11.413 17.5266
ltoes -33.78
813
root -1.52668 16.5984 -2.49678 23.2706 6.3573 364.047
lowerback -12.3622 -5.47352 -0.968557
upperback -12.4624 -7.21689 0.262236
thorax -6.18974 -3.56843 0.324306
lowerneck -4.68033 4.59571 -0.407188
upperneck 26.5222 5.7827 2.9565
head 8.93804 2.96336 1.58647
rclavicle -1.07039e-013 -4.04527e-014
rhumerus -60.5445 36.0233 -62.5273
rradius 46.2261
rwrist -57.4843
rhand 24.67 4.56617
rfingers 7.12502
rthumb 48.858 -17.2362
lclavicle -1.07039e-013 -4.04527e-014
lhumerus 35.8564 -81.0216 -5.44207
lradius 96.4635
lwrist 47.1367
lhand 35.2738 23.8393
lfingers 7.12502
lthumb 58.3754 39.219
rfemur -54.2367 2.84518 16.26
rtibia 29.2171
rfoot -44.3993 -42.6662
rtoes 48.0396
lfemur 6.91635 -5.83569 -23.1901
ltibia -2.8625e-014
lfoot -11.1107 17.234
ltoes -31.9926
814
root -1.57086 16.6381 -2.37162 23.7546 6.40482 364.222
lowerback -12.3874 -5.58017 -1.12132
upperback -13.0505 -7.35904 0.250254
thorax -6.8205 -3.62343 0.423668
lowerneck -4.57773 4.77911 -0.369278
upperneck 26.1737 5.98739 3.17097
head 8.78688 3.0887 1.65706
rclavicle 8.98817e-014 6.77359e-014
rhumerus -60.4166 36.5601 -61.5747
rradius 45.1627
rwrist -56.2527
rhand 25.0846 4.57136
rfingers 7.12502
rthumb 49.2388 -17.042
lclavicle 8.98817e-014 6.77359e-014
lhumerus 38.2433 -79.1058 -8.01331
lradius 95.1872
lwrist 46.219
lhand 35.2704 23.9231
lfingers 7.12502
lthumb 58.3725 39.3055
rfemur -54.159 3.31315 15.9407
rtibia 29.0065
rfoot -44.6139 -43.2785
rtoes 47.6412
lfemur 6.70628 -5.94778 -23.0731
ltibia 5.40694e-014
lfoot -10.1875 17.2365
ltoes -31.7415
815
root -1.60289 16.6824 -2.23444 24.0618 6.54439 364.146
lowerback -12.7281 -5.60701 -0.8446
upperback -13.3671 -7.41441 0.180222
thorax -7.04047 -3.6773 0.185939
lowerneck -4.32042 4.90493 -0.325033
upperneck 25.4785 6.09516 3.45339
head 8.48778 3.17621 1.72502
rclavicle 4.08316e-014 1.88348e-014
rhumerus -60.0269 36.8058 -60.4503
rradius 44.0856
rwrist -54.8808
rhand 25.5503 4.62141
rfingers 7.12502
rthumb 49.6659 -16.775
lclavicle 4.08316e-014 1.88348e-014
lhumerus 41.3598 -77.0567 -11.4719
lradius 94.0194
lwrist 45.0637
lhand 34.899 23.3942
lfingers 7.12502
lthumb 58.0491 39.0714
rfemur -53.834 3.06734 16.445
rtibia 28.7497
rfoot -43.0828 -44.1281
rtoes 46.4839
lfemur 6.62567 -6.03294 -22.7312
ltibia 1.59028e-014
lfoot -8.95768 17.5506
ltoes -31.7381
816
root -1.62768 16.7166 -2.10235 24.4203 6.65094 364.052
lowerback -13.0922 -5.60846 -0.511291
upperback -13.7381 -7.44207 0.114306
thorax -7.32016 -3.72332 -0.07447
lowerneck -3.82749 5.00662 -0.399856
upperneck 24.6644 6.16885 3.82198
head 8.10158 3.24286 1.82527
rclavicle -2.02217e-014 -5.03174e-015
rhumerus -59.5999 37.1357 -59.2734
rradius 42.9372
rwrist -53.6046
rhand 26.0104 4.60376
rfingers 7.12502
rthumb 50.0872 -16.5731
lclavicle -2.02217e-014 -5.03174e-015
lhumerus 44.4677 -75.157 -14.7993
lradius 92.8649
lwrist 44.2165
lhand 34.4562 23.1298
lfingers 7.12502
lthumb 57.6624 39.1502
rfemur -53.6265 2.19299 17.4244
rtibia 28.4919
rfoot -40.7029 -44.5842
rtoes 45.0488
lfemur 6.6128 -6.08342 -22.4334
ltibia 6.36111e-015
lfoot -8.40964 17.9806
ltoes -28.0705
817
root -1.65776 16.7461 -1.98783 24.9866 6.58247 363.965
lowerback -13.4775 -5.55372 -0.308346
upperback -14.0756 -7.38581 0.065238
thorax -7.53305 -3.71731 -0.246606
lowerneck -3.85865 5.10861 -0.436209
upperneck 23.9366 6.25512 4.14022
head 7.84625 3.31351 1.92182
rclavicle 2.7277e-014 2.2649e-014
rhumerus -58.9023 37.3329 -57.9734
rradius 41.9713
rwrist -52.5558
rhand 26.1681 4.3141
rfingers 7.12502
rthumb 50.2314 -16.7863
lclavicle 2.7277e-014 2.2649e-014
lhumerus 47.246 -72.9379 -17.6094
lradius 91.5441
lwrist 43.177
lhand 34.3684 23.0598
lfingers 7.12502
lthumb 57.5856 39.1473
rfemur -53.7721 1.71268 18.144
rtibia 28.3084
rfoot -39.6242 -44.547
rtoes 44.3335
lfemur 6.35932 -5.98256 -22.1835
ltibia -2.8625e-014
lfoot -7.63075 18.8549
ltoes -22.7196
818
root -1.69085 16.7773 -1.87494 25.4432 6.52804 363.958
lowerback -13.8203 -5.5552 -0.243861
upperback -14.2768 -7.39189 0.0367531
thorax -7.59359 -3.73038 -0.332537
lowerneck -4.24048 5.21209 -0.304742
upperneck 23.2457 6.37883 4.20973
head 7.68356 3.39351 1.92464
rclavicle -8.56824e-014 -3.71727e-014
rhumerus -57.8979 37.4356 -56.4757
rradius 41.1736
rwrist -51.2671
rhand 26.2799 4.12053
rfingers 7.12502
rthumb 50.3336 -16.9253
lclavicle -8.56824e-014 -3.71727e-014
lhumerus 48.7024 -70.5167 -19.1374
lradius 90.1221
lwrist 42.2041
lhand 34.5181 23.1898
lfingers 7.12502
lthumb 57.7166 39.1628
rfemur -53.8402 1.60392 18.4688
rtibia 28.2587
rfoot -39.3112 -44.4229
rtoes 44.1284
lfemur 6.1819 -5.91932 -21.9995
ltibia -3.18055e-015
lfoot -6.43025 19.9633
ltoes -20.3948
819
root -1.72984 16.8084 -1.75969 25.5891 6.56174 364.241
lowerback -13.8779 -5.71717 -0.550409
upperback -14.5056 -7.5887 -0.0160062
thorax -7.79871 -3.80549 -0.226124
lowerneck -3.95504 5.40139 -0.212367
upperneck 22.3702 6.63766 4.24424
head 7.33907 3.52827 1.90311
rclavicle 3.80176e-015 2.2413e-014
rhumerus -57.1457 37.7524 -55.0679
rradius 40.3913
rwrist -49.6651
rhand 26.4837 4.27825
rfingers 7.12502
rthumb 50.5197 -16.6673
lclavicle 3.80176e-015 2.2413e-014
lhumerus 49.2014 -68.3843 -19.8561
lradius 88.5678
lwrist 41.2587
lhand 35.393 23.1051
lfingers 7.12502
lthumb 58.479 38.3887
rfemur -53.4608 1.87861 18.1419
rtibia 28.1889
rfoot -40.301 -44.2291
rtoes 44.4733
lfemur 6.41653 -6.04888 -22.0727
ltibia -1.27222e-014
lfoot -5.89562 20.9577
ltoes -18.9178
820
root -1.76912 16.836 -1.65103 25.7866 6.46981 364.524
lowerback -13.7754 -5.82041 -0.921414
upperback -14.9552 -7.71288 -0.0567415
thorax -8.33715 -3.83267 -0.0337955
lowerneck -3.02417 5.61657 -0.306824
upperneck 21.4313 6.92606 4.43648
head 6.84964 3.67268 1.93754
rclavicle 6.19525e-014 1.89839e-014
rhumerus -56.6785 38.0665 -53.6198
rradius 39.4911
rwrist -47.9748
rhand 26.9291 4.74533
rfingers 7.12502
rthumb 50.9261 -15.9772
lclavicle 6.19525e-014 1.89839e-014
lhumerus 50.6047 -66.7571 -21.2705
lradius 86.9751
lwrist 40.1837
lhand 35.471 22.837
lfingers 7.12502
lthumb 58.5467 38.0575
rfemur -53.1683 2.12373 17.8623
rtibia 28.0867
rfoot -41.0807 -44.0457
rtoes 44.5068
lfemur 6.5934 -6.06884 -22.2113
ltibia -3.49861e-014
lfoot -5.7406 22.1873
ltoes -17.4309
821
root -1.79725 16.858 -1.55318 26.1712 6.35924 364.376
lowerback -13.8551 -5.77625 -0.780559
upperback -15.4022 -7.67003 0.0381725
thorax -8.82394 -3.81611 0.0191241
lowerneck -2.5808 5.76177 -0.62298
upperneck 20.7174 7.09976 4.81942
head 6.50828 3.76177 2.0823
rclavicle -6.42634e-014 -4.44532e-014
rhumerus -56.0151 38.3504 -52.0312
rradius 38.5906
rwrist -46.3825
rhand 27.195 5.26821
rfingers 7.12502
rthumb 51.1684 -15.3187
lclavicle -6.42634e-014 -4.44532e-014
lhumerus 52.286 -65.0679 -22.735
lradius 85.4797
lwrist 39.138
lhand 34.8506 22.9512
lfingers 7.12502
lthumb 58.007 38.6664
rfemur -53.242 1.72426 18.5586
rtibia 28.0152
rfoot -39.647 -44.028
rtoes 43.5294
lfemur 6.50339 -5.89361 -21.9586
ltibia -7.31528e-014
lfoot -5.88134 23.5273
ltoes -14.7424
